<svg width="23" height="23" viewBox="0 0 23 23" fill="none" xmlns="http://www.w3.org/2000/svg">
<path d="M11.5 0.5625C5.45996 0.5625 0.5625 5.45996 0.5625 11.5C0.5625 17.54 5.45996 22.4375 11.5 22.4375C17.54 22.4375 22.4375 17.54 22.4375 11.5C22.4375 5.45996 17.54 0.5625 11.5 0.5625ZM16.7563 8.80713C16.7637 8.92188 16.7637 9.0415 16.7637 9.15869C16.7637 12.7427 14.0342 16.8711 9.04639 16.8711C7.5083 16.8711 6.08252 16.4243 4.88135 15.6553C5.10107 15.6797 5.31104 15.6895 5.53565 15.6895C6.80518 15.6895 7.97217 15.2598 8.90234 14.5322C7.71094 14.5078 6.70996 13.7266 6.36816 12.6523C6.78564 12.7134 7.16162 12.7134 7.59131 12.6035C6.97785 12.4789 6.42645 12.1457 6.0308 11.6606C5.63515 11.1755 5.41964 10.5684 5.4209 9.94238V9.9082C5.77979 10.1108 6.20215 10.2354 6.64404 10.2524C6.27256 10.0049 5.96792 9.66946 5.75711 9.27595C5.5463 8.88244 5.43585 8.443 5.43555 7.99658C5.43555 7.49121 5.56738 7.02979 5.8042 6.62939C6.48511 7.46762 7.33479 8.15318 8.29801 8.64152C9.26123 9.12986 10.3164 9.41004 11.395 9.46387C11.0117 7.62061 12.3887 6.12891 14.0439 6.12891C14.8252 6.12891 15.5283 6.45605 16.0239 6.9834C16.6367 6.86865 17.2227 6.63916 17.7451 6.33154C17.5425 6.95898 17.1177 7.48877 16.5537 7.82324C17.1006 7.76465 17.6279 7.61328 18.1162 7.40088C17.7476 7.94287 17.2861 8.42383 16.7563 8.80713Z" fill="black"/>
</svg>
